<svg width="136" height="144" viewBox="0 0 136 144" fill="none" xmlns="http://www.w3.org/2000/svg">
<g filter="url(#filter0_d_207_23)">
<path fill-rule="evenodd" clip-rule="evenodd" d="M67.3897 108C89.7573 108 107.89 89.8675 107.89 67.5C107.89 45.1325 89.7573 27 67.3897 27C45.0222 27 26.8897 45.1325 26.8897 67.5C26.8897 89.8675 45.0222 108 67.3897 108ZM66.5434 69.2329L42.0772 54.3375L91.5419 55.2491L66.5434 69.2329ZM66.8884 69.6641L91.8014 55.5133L66.9559 98.3154L66.8884 69.6641Z" fill="black"/>
</g>
<g filter="url(#filter1_d_207_23)">
<path fill-rule="evenodd" clip-rule="evenodd" d="M126.779 34L67.8897 0L9 34V102L67.8897 136L126.779 102V34ZM67.8897 118C95.504 118 117.89 95.6142 117.89 68C117.89 40.3858 95.504 18 67.8897 18C40.2755 18 17.8897 40.3858 17.8897 68C17.8897 95.6142 40.2755 118 67.8897 118Z" fill="black"/>
</g>
<defs>
<filter id="filter0_d_207_23" x="22.8897" y="27" width="89" height="89" filterUnits="userSpaceOnUse" color-interpolation-filters="sRGB">
<feFlood flood-opacity="0" result="BackgroundImageFix"/>
<feColorMatrix in="SourceAlpha" type="matrix" values="0 0 0 0 0 0 0 0 0 0 0 0 0 0 0 0 0 0 127 0" result="hardAlpha"/>
<feOffset dy="4"/>
<feGaussianBlur stdDeviation="2"/>
<feComposite in2="hardAlpha" operator="out"/>
<feColorMatrix type="matrix" values="0 0 0 0 0 0 0 0 0 0 0 0 0 0 0 0 0 0 0.25 0"/>
<feBlend mode="normal" in2="BackgroundImageFix" result="effect1_dropShadow_207_23"/>
<feBlend mode="normal" in="SourceGraphic" in2="effect1_dropShadow_207_23" result="shape"/>
</filter>
<filter id="filter1_d_207_23" x="5" y="0" width="125.779" height="144" filterUnits="userSpaceOnUse" color-interpolation-filters="sRGB">
<feFlood flood-opacity="0" result="BackgroundImageFix"/>
<feColorMatrix in="SourceAlpha" type="matrix" values="0 0 0 0 0 0 0 0 0 0 0 0 0 0 0 0 0 0 127 0" result="hardAlpha"/>
<feOffset dy="4"/>
<feGaussianBlur stdDeviation="2"/>
<feComposite in2="hardAlpha" operator="out"/>
<feColorMatrix type="matrix" values="0 0 0 0 0 0 0 0 0 0 0 0 0 0 0 0 0 0 0.25 0"/>
<feBlend mode="normal" in2="BackgroundImageFix" result="effect1_dropShadow_207_23"/>
<feBlend mode="normal" in="SourceGraphic" in2="effect1_dropShadow_207_23" result="shape"/>
</filter>
</defs>
</svg>
